<svg xmlns="http://www.w3.org/2000/svg" xmlns:xlink="http://www.w3.org/1999/xlink" version="1.1" x="0px" y="0px" viewBox="0 0 100 125" style="enable-background:new 0 0 100 100;" xml:space="preserve"><path d="M94.5,81.5l-6-14.9c-0.8-1.9-2.8-2.9-4.8-2.3l-14.9,4.5c-1.6,0.5-2.5,2.1-2,3.7c0.5,1.6,2.1,2.5,3.7,2l9-2.7  C74,81.4,63.8,88,52.2,88.9V36.1h11.2c1.6,0,3-1.3,3-3c0-1.6-1.3-3-3-3H52.2v-0.7c5.4-1.3,9.5-6.2,9.5-12C61.6,10.6,56.1,5,49.2,5  c-6.8,0-12.4,5.6-12.4,12.4c0,5.8,4,10.7,9.5,12v0.7H35c-1.6,0-3,1.3-3,3c0,1.6,1.3,3,3,3h11.2v52.8c-11.6-1-21.8-7.5-27.4-17.3  l9,2.7c1.6,0.5,3.2-0.4,3.7-2c0.5-1.6-0.4-3.2-2-3.7l-14.8-4.4c-1-0.3-2.1-0.2-3,0.3c-0.9,0.5-1.6,1.3-1.9,2.3L5.4,81.7  c-0.5,1.6,0.4,3.2,2,3.7c0.3,0.1,0.6,0.1,0.9,0.1c1.3,0,2.5-0.8,2.8-2.1l2.6-8.7C20.8,87.1,34.3,95,49.2,95c15.2,0,28.9-8.2,35.9-21  l3.9,9.7c0.5,1.2,1.6,1.9,2.8,1.9c0.4,0,0.7-0.1,1.1-0.2C94.4,84.7,95.1,83,94.5,81.5z M42.7,17.4c0-3.6,2.9-6.5,6.5-6.5  s6.5,2.9,6.5,6.5s-2.9,6.5-6.5,6.5S42.7,21,42.7,17.4z"/><text x="0" y="115" fill="#000000" font-size="5px" font-weight="bold" font-family="'Helvetica Neue', Helvetica, Arial-Unicode, Arial, Sans-serif">Created by IconMark</text><text x="0" y="120" fill="#000000" font-size="5px" font-weight="bold" font-family="'Helvetica Neue', Helvetica, Arial-Unicode, Arial, Sans-serif">from the Noun Project</text></svg>